<?xml version="1.0" standalone="no"?>
    <!DOCTYPE svg PUBLIC "-//W3C//DTD SVG 1.1//EN" "http://www.w3.org/Graphics/SVG/1.1/DTD/svg11.dtd">
    <svg version="1.1" width="1200" height="530" onload="init(evt)" viewBox="0 0 1200 530" xmlns="http://www.w3.org/2000/svg" >
    <defs >
    <linearGradient id="background" y1="0" y2="1" x1="0" x2="0" >
        <stop stop-color="#eeeeee" offset="5%" />
        <stop stop-color="#eeeeb0" offset="95%" />
    </linearGradient>
    </defs>
    <style type="text/css">
    rect[rx]:hover { stroke:black; stroke-width:1; }
    text:hover { stroke:black; stroke-width:1; stroke-opacity:0.35; }
    </style>
    <script type="text/ecmascript">
    <![CDATA[
    var details;
    function init(evt) { details = document.getElementById("details").firstChild; }
    function s(info) { details.nodeValue = info; }
    function c() { details.nodeValue = ' '; }
    ]]>
    </script>
    <rect x="0.0" y="0" width="1200.0" height="530" fill="url(#background)"  />
    <text text-anchor="middle" x="600" y="24" font-size="17" font-family="Verdana" font-weight="bold" fill="rgb(0,0,0)"  >Call Graph</text>
    <text text-anchor="left" x="10" y="514" font-size="12" font-family="Verdana" fill="rgb(0,0,0)"  >Function:</text>
    <text text-anchor="" x="70" y="514" font-size="12" font-family="Verdana" fill="rgb(0,0,0)" id="details" > </text>
<rect x="10" y="481" width="1180" height="15.0" fill="#FF0000" rx="2" ry="2" onmouseover="s('simplifyFragmentData (212 samples, 100%)')" onmouseout="c()" />
<rect x="10" y="465" width="1118.76" height="15.0" fill="#FF1000" rx="2" ry="2" onmouseover="s('ddply (201 samples, 94.81%)')" onmouseout="c()" />
<rect x="1128.77" y="465" width="22.3" height="15.0" fill="#FF2000" rx="2" ry="2" onmouseover="s('reshape2::dcast (4 samples, 1.89%)')" onmouseout="c()" />
<rect x="1151.04" y="465" width="16.76" height="15.0" fill="#FF3000" rx="2" ry="2" onmouseover="s('.rockFragmentSieve (3 samples, 1.42%)')" onmouseout="c()" />
<rect x="1167.74" y="465" width="5.55" height="15.0" fill="#FF2000" rx="2" ry="2" onmouseover="s('reshape2::dcast (1 samples, 0.47%)')" onmouseout="c()" />
<rect x="1173.3" y="465" width="11.09" height="15.0" fill="#FF3000" rx="2" ry="2" onmouseover="s('.rockFragmentSieve (2 samples, 0.94%)')" onmouseout="c()" />
<rect x="1184.43" y="465" width="5.55" height="15.0" fill="#FF4000" rx="2" ry="2" onmouseover="s('as.data.frame (1 samples, 0.47%)')" onmouseout="c()" />
<rect x="10" y="449" width="1113.21" height="15.0" fill="#FF5000" rx="2" ry="2" onmouseover="s('ldply (200 samples, 94.34%)')" onmouseout="c()" />
<rect x="1123.21" y="449" width="5.55" height="15.0" fill="#FF6000" rx="2" ry="2" onmouseover="s('splitter_d (1 samples, 0.47%)')" onmouseout="c()" />
<rect x="1128.77" y="449" width="22.3" height="15.0" fill="#FF7000" rx="2" ry="2" onmouseover="s('cast (4 samples, 1.89%)')" onmouseout="c()" />
<rect x="1151.04" y="449" width="16.76" height="15.0" fill="#FF8000" rx="2" ry="2" onmouseover="s('.sieve (3 samples, 1.42%)')" onmouseout="c()" />
<rect x="1167.74" y="449" width="5.55" height="15.0" fill="#FF8F00" rx="2" ry="2" onmouseover="s('parse_formula (1 samples, 0.47%)')" onmouseout="c()" />
<rect x="1173.3" y="449" width="5.55" height="15.0" fill="#FF9F00" rx="2" ry="2" onmouseover="s('tolower (1 samples, 0.47%)')" onmouseout="c()" />
<rect x="1178.87" y="449" width="5.55" height="15.0" fill="#FFAF00" rx="2" ry="2" onmouseover="s('ifelse (1 samples, 0.47%)')" onmouseout="c()" />
<rect x="1184.43" y="449" width="5.55" height="15.0" fill="#FFBF00" rx="2" ry="2" onmouseover="s('cbind (1 samples, 0.47%)')" onmouseout="c()" />
<rect x="10" y="433" width="807.12" height="15.0" fill="#FFCF00" rx="2" ry="2" onmouseover="s('llply (145 samples, 68.4%)')" onmouseout="c()" />
<rect x="817.08" y="433" width="306.09" height="15.0" fill="#FFDF00" rx="2" ry="2" onmouseover="s('list_to_dataframe (55 samples, 25.94%)')" onmouseout="c()" />
<rect x="1123.21" y="433" width="5.55" height="15.0" fill="#FFEF00" rx="2" ry="2" onmouseover="s('id (1 samples, 0.47%)')" onmouseout="c()" />
<rect x="1128.77" y="433" width="11.09" height="15.0" fill="#FFFF00" rx="2" ry="2" onmouseover="s('mapply (2 samples, 0.94%)')" onmouseout="c()" />
<rect x="1139.91" y="433" width="5.55" height="15.0" fill="#FF8F00" rx="2" ry="2" onmouseover="s('parse_formula (1 samples, 0.47%)')" onmouseout="c()" />
<rect x="1151.04" y="433" width="11.09" height="15.0" fill="#EFFF00" rx="2" ry="2" onmouseover="s('apply (2 samples, 0.94%)')" onmouseout="c()" />
<rect x="1162.17" y="433" width="5.55" height="15.0" fill="#DFFF00" rx="2" ry="2" onmouseover="s('compiler:::tryCmpfun (1 samples, 0.47%)')" onmouseout="c()" />
<rect x="1167.74" y="433" width="5.55" height="15.0" fill="#CFFF00" rx="2" ry="2" onmouseover="s('lazyLoadDBfetch (1 samples, 0.47%)')" onmouseout="c()" />
<rect x="1184.43" y="433" width="5.55" height="15.0" fill="#BFFF00" rx="2" ry="2" onmouseover="s('lapply (1 samples, 0.47%)')" onmouseout="c()" />
<rect x="10" y="417" width="801.46" height="15.0" fill="#AFFF00" rx="2" ry="2" onmouseover="s('loop_apply (144 samples, 67.92%)')" onmouseout="c()" />
<rect x="811.51" y="417" width="5.55" height="15.0" fill="#9FFF00" rx="2" ry="2" onmouseover="s('names (1 samples, 0.47%)')" onmouseout="c()" />
<rect x="817.08" y="417" width="233.76" height="15.0" fill="#8FFF00" rx="2" ry="2" onmouseover="s('rbind.fill (42 samples, 19.81%)')" onmouseout="c()" />
<rect x="1050.85" y="417" width="66.79" height="15.0" fill="#80FF00" rx="2" ry="2" onmouseover="s('unlist (12 samples, 5.66%)')" onmouseout="c()" />
<rect x="1117.64" y="417" width="5.55" height="15.0" fill="#70FF00" rx="2" ry="2" onmouseover="s('vapply (1 samples, 0.47%)')" onmouseout="c()" />
<rect x="1123.21" y="417" width="5.55" height="15.0" fill="#60FF00" rx="2" ry="2" onmouseover="s('rev (1 samples, 0.47%)')" onmouseout="c()" />
<rect x="1128.77" y="417" width="11.09" height="15.0" fill="#50FF00" rx="2" ry="2" onmouseover="s('&lt;Anonymous&gt; (2 samples, 0.94%)')" onmouseout="c()" />
<rect x="1139.91" y="417" width="5.55" height="15.0" fill="#DFFF00" rx="2" ry="2" onmouseover="s('compiler:::tryCmpfun (1 samples, 0.47%)')" onmouseout="c()" />
<rect x="1151.04" y="417" width="5.55" height="15.0" fill="#70FF00" rx="2" ry="2" onmouseover="s('vapply (1 samples, 0.47%)')" onmouseout="c()" />
<rect x="1162.17" y="417" width="5.55" height="15.0" fill="#40FF00" rx="2" ry="2" onmouseover="s('tryCatch (1 samples, 0.47%)')" onmouseout="c()" />
<rect x="1184.43" y="417" width="5.55" height="15.0" fill="#30FF00" rx="2" ry="2" onmouseover="s('FUN (1 samples, 0.47%)')" onmouseout="c()" />
<rect x="10" y="401" width="801.46" height="15.0" fill="#20FF00" rx="2" ry="2" onmouseover="s('.Call (144 samples, 67.92%)')" onmouseout="c()" />
<rect x="811.51" y="401" width="5.55" height="15.0" fill="#9FFF00" rx="2" ry="2" onmouseover="s('names (1 samples, 0.47%)')" onmouseout="c()" />
<rect x="817.08" y="401" width="116.94" height="15.0" fill="#10FF00" rx="2" ry="2" onmouseover="s('seq (21 samples, 9.91%)')" onmouseout="c()" />
<rect x="933.96" y="401" width="66.79" height="15.0" fill="#00FF00" rx="2" ry="2" onmouseover="s('setters[[var]] (12 samples, 5.66%)')" onmouseout="c()" />
<rect x="1000.75" y="401" width="11.09" height="15.0" fill="#70FF00" rx="2" ry="2" onmouseover="s('vapply (2 samples, 0.94%)')" onmouseout="c()" />
<rect x="1011.89" y="401" width="5.55" height="15.0" fill="#00FF10" rx="2" ry="2" onmouseover="s('output_template (1 samples, 0.47%)')" onmouseout="c()" />
<rect x="1017.45" y="401" width="11.09" height="15.0" fill="#80FF00" rx="2" ry="2" onmouseover="s('unlist (2 samples, 0.94%)')" onmouseout="c()" />
<rect x="1028.58" y="401" width="5.55" height="15.0" fill="#00FF10" rx="2" ry="2" onmouseover="s('output_template (1 samples, 0.47%)')" onmouseout="c()" />
<rect x="1034.15" y="401" width="5.55" height="15.0" fill="#9FFF00" rx="2" ry="2" onmouseover="s('names (1 samples, 0.47%)')" onmouseout="c()" />
<rect x="1039.72" y="401" width="5.55" height="15.0" fill="#00FF20" rx="2" ry="2" onmouseover="s('compact (1 samples, 0.47%)')" onmouseout="c()" />
<rect x="1050.85" y="401" width="44.49" height="15.0" fill="#BFFF00" rx="2" ry="2" onmouseover="s('lapply (8 samples, 3.77%)')" onmouseout="c()" />
<rect x="1123.21" y="401" width="5.55" height="15.0" fill="#BFFF00" rx="2" ry="2" onmouseover="s('lapply (1 samples, 0.47%)')" onmouseout="c()" />
<rect x="1128.77" y="401" width="5.55" height="15.0" fill="#FFCF00" rx="2" ry="2" onmouseover="s('llply (1 samples, 0.47%)')" onmouseout="c()" />
<rect x="1134.34" y="401" width="5.55" height="15.0" fill="#60FF00" rx="2" ry="2" onmouseover="s('rev (1 samples, 0.47%)')" onmouseout="c()" />
<rect x="1139.91" y="401" width="5.55" height="15.0" fill="#40FF00" rx="2" ry="2" onmouseover="s('tryCatch (1 samples, 0.47%)')" onmouseout="c()" />
<rect x="1162.17" y="401" width="5.55" height="15.0" fill="#00FF30" rx="2" ry="2" onmouseover="s('tryCatchList (1 samples, 0.47%)')" onmouseout="c()" />
<rect x="1184.43" y="401" width="5.55" height="15.0" fill="#FFAF00" rx="2" ry="2" onmouseover="s('ifelse (1 samples, 0.47%)')" onmouseout="c()" />
<rect x="10" y="385" width="801.46" height="15.0" fill="#50FF00" rx="2" ry="2" onmouseover="s('&lt;Anonymous&gt; (144 samples, 67.92%)')" onmouseout="c()" />
<rect x="811.51" y="385" width="5.55" height="15.0" fill="#00FF40" rx="2" ry="2" onmouseover="s('names.indexed (1 samples, 0.47%)')" onmouseout="c()" />
<rect x="817.08" y="385" width="55.7" height="15.0" fill="#00FF50" rx="2" ry="2" onmouseover="s('seq.default (10 samples, 4.72%)')" onmouseout="c()" />
<rect x="933.96" y="385" width="61.24" height="15.0" fill="#00FF60" rx="2" ry="2" onmouseover="s('eval (11 samples, 5.19%)')" onmouseout="c()" />
<rect x="1000.75" y="385" width="11.09" height="15.0" fill="#30FF00" rx="2" ry="2" onmouseover="s('FUN (2 samples, 0.94%)')" onmouseout="c()" />
<rect x="1011.89" y="385" width="5.55" height="15.0" fill="#00FF70" rx="2" ry="2" onmouseover="s('unique (1 samples, 0.47%)')" onmouseout="c()" />
<rect x="1017.45" y="385" width="11.09" height="15.0" fill="#BFFF00" rx="2" ry="2" onmouseover="s('lapply (2 samples, 0.94%)')" onmouseout="c()" />
<rect x="1028.58" y="385" width="5.55" height="15.0" fill="#00FF70" rx="2" ry="2" onmouseover="s('unique (1 samples, 0.47%)')" onmouseout="c()" />
<rect x="1034.15" y="385" width="5.55" height="15.0" fill="#9FFF00" rx="2" ry="2" onmouseover="s('names (1 samples, 0.47%)')" onmouseout="c()" />
<rect x="1039.72" y="385" width="5.55" height="15.0" fill="#00FF80" rx="2" ry="2" onmouseover="s('Filter (1 samples, 0.47%)')" onmouseout="c()" />
<rect x="1050.85" y="385" width="33.39" height="15.0" fill="#30FF00" rx="2" ry="2" onmouseover="s('FUN (6 samples, 2.83%)')" onmouseout="c()" />
<rect x="1123.21" y="385" width="5.55" height="15.0" fill="#30FF00" rx="2" ry="2" onmouseover="s('FUN (1 samples, 0.47%)')" onmouseout="c()" />
<rect x="1128.77" y="385" width="5.55" height="15.0" fill="#DFFF00" rx="2" ry="2" onmouseover="s('compiler:::tryCmpfun (1 samples, 0.47%)')" onmouseout="c()" />
<rect x="1134.34" y="385" width="5.55" height="15.0" fill="#00FF8F" rx="2" ry="2" onmouseover="s('expand.grid (1 samples, 0.47%)')" onmouseout="c()" />
<rect x="1139.91" y="385" width="5.55" height="15.0" fill="#00FF30" rx="2" ry="2" onmouseover="s('tryCatchList (1 samples, 0.47%)')" onmouseout="c()" />
<rect x="1162.17" y="385" width="5.55" height="15.0" fill="#00FF9F" rx="2" ry="2" onmouseover="s('tryCatchOne (1 samples, 0.47%)')" onmouseout="c()" />
<rect x="10" y="369" width="395.18" height="15.0" fill="#00FFAF" rx="2" ry="2" onmouseover="s('[[ (71 samples, 33.49%)')" onmouseout="c()" />
<rect x="405.19" y="369" width="372.88" height="15.0" fill="#00FFBF" rx="2" ry="2" onmouseover="s('.fun (67 samples, 31.6%)')" onmouseout="c()" />
<rect x="811.51" y="369" width="5.55" height="15.0" fill="#BFFF00" rx="2" ry="2" onmouseover="s('lapply (1 samples, 0.47%)')" onmouseout="c()" />
<rect x="817.08" y="369" width="5.55" height="15.0" fill="#00FFCF" rx="2" ry="2" onmouseover="s('as.vector (1 samples, 0.47%)')" onmouseout="c()" />
<rect x="933.96" y="369" width="50.15" height="15.0" fill="#00FF60" rx="2" ry="2" onmouseover="s('eval (9 samples, 4.25%)')" onmouseout="c()" />
<rect x="1011.89" y="369" width="5.55" height="15.0" fill="#80FF00" rx="2" ry="2" onmouseover="s('unlist (1 samples, 0.47%)')" onmouseout="c()" />
<rect x="1017.45" y="369" width="11.09" height="15.0" fill="#30FF00" rx="2" ry="2" onmouseover="s('FUN (2 samples, 0.94%)')" onmouseout="c()" />
<rect x="1028.58" y="369" width="5.55" height="15.0" fill="#80FF00" rx="2" ry="2" onmouseover="s('unlist (1 samples, 0.47%)')" onmouseout="c()" />
<rect x="1039.72" y="369" width="5.55" height="15.0" fill="#80FF00" rx="2" ry="2" onmouseover="s('unlist (1 samples, 0.47%)')" onmouseout="c()" />
<rect x="1050.85" y="369" width="22.3" height="15.0" fill="#00FFDF" rx="2" ry="2" onmouseover="s('dim (4 samples, 1.89%)')" onmouseout="c()" />
<rect x="1073.11" y="369" width="5.55" height="15.0" fill="#30FF00" rx="2" ry="2" onmouseover="s('FUN (1 samples, 0.47%)')" onmouseout="c()" />
<rect x="1123.21" y="369" width="5.55" height="15.0" fill="#00FFEF" rx="2" ry="2" onmouseover="s('sort (1 samples, 0.47%)')" onmouseout="c()" />
<rect x="1128.77" y="369" width="5.55" height="15.0" fill="#40FF00" rx="2" ry="2" onmouseover="s('tryCatch (1 samples, 0.47%)')" onmouseout="c()" />
<rect x="1134.34" y="369" width="5.55" height="15.0" fill="#00FFFF" rx="2" ry="2" onmouseover="s('paste0 (1 samples, 0.47%)')" onmouseout="c()" />
<rect x="1139.91" y="369" width="5.55" height="15.0" fill="#00FF9F" rx="2" ry="2" onmouseover="s('tryCatchOne (1 samples, 0.47%)')" onmouseout="c()" />
<rect x="1162.17" y="369" width="5.55" height="15.0" fill="#00EFFF" rx="2" ry="2" onmouseover="s('doTryCatch (1 samples, 0.47%)')" onmouseout="c()" />
<rect x="10" y="353" width="395.18" height="15.0" fill="#00DFFF" rx="2" ry="2" onmouseover="s('[[.indexed_df (71 samples, 33.49%)')" onmouseout="c()" />
<rect x="405.19" y="353" width="244.85" height="15.0" fill="#00CFFF" rx="2" ry="2" onmouseover="s('quickdf (44 samples, 20.75%)')" onmouseout="c()" />
<rect x="650.09" y="353" width="50.15" height="15.0" fill="#00BFFF" rx="2" ry="2" onmouseover="s('as.list (9 samples, 4.25%)')" onmouseout="c()" />
<rect x="700.19" y="353" width="44.49" height="15.0" fill="#00AFFF" rx="2" ry="2" onmouseover="s('stopifnot (8 samples, 3.77%)')" onmouseout="c()" />
<rect x="744.72" y="353" width="5.55" height="15.0" fill="#DFFF00" rx="2" ry="2" onmouseover="s('compiler:::tryCmpfun (1 samples, 0.47%)')" onmouseout="c()" />
<rect x="811.51" y="353" width="5.55" height="15.0" fill="#30FF00" rx="2" ry="2" onmouseover="s('FUN (1 samples, 0.47%)')" onmouseout="c()" />
<rect x="933.96" y="353" width="33.39" height="15.0" fill="#00FFAF" rx="2" ry="2" onmouseover="s('[[ (6 samples, 2.83%)')" onmouseout="c()" />
<rect x="1011.89" y="353" width="5.55" height="15.0" fill="#BFFF00" rx="2" ry="2" onmouseover="s('lapply (1 samples, 0.47%)')" onmouseout="c()" />
<rect x="1050.85" y="353" width="22.3" height="15.0" fill="#00FFDF" rx="2" ry="2" onmouseover="s('dim (4 samples, 1.89%)')" onmouseout="c()" />
<rect x="1123.21" y="353" width="5.55" height="15.0" fill="#00FF70" rx="2" ry="2" onmouseover="s('unique (1 samples, 0.47%)')" onmouseout="c()" />
<rect x="1128.77" y="353" width="5.55" height="15.0" fill="#00FF30" rx="2" ry="2" onmouseover="s('tryCatchList (1 samples, 0.47%)')" onmouseout="c()" />
<rect x="1134.34" y="353" width="5.55" height="15.0" fill="#009FFF" rx="2" ry="2" onmouseover="s('format (1 samples, 0.47%)')" onmouseout="c()" />
<rect x="1139.91" y="353" width="5.55" height="15.0" fill="#00EFFF" rx="2" ry="2" onmouseover="s('doTryCatch (1 samples, 0.47%)')" onmouseout="c()" />
<rect x="1162.17" y="353" width="5.55" height="15.0" fill="#008FFF" rx="2" ry="2" onmouseover="s('cmpfun (1 samples, 0.47%)')" onmouseout="c()" />
<rect x="10" y="337" width="356.24" height="15.0" fill="#0080FF" rx="2" ry="2" onmouseover="s('extract_rows (64 samples, 30.19%)')" onmouseout="c()" />
<rect x="366.23" y="337" width="16.76" height="15.0" fill="#0070FF" rx="2" ry="2" onmouseover="s('$ (3 samples, 1.42%)')" onmouseout="c()" />
<rect x="405.19" y="337" width="116.94" height="15.0" fill="#00FF70" rx="2" ry="2" onmouseover="s('unique (21 samples, 9.91%)')" onmouseout="c()" />
<rect x="522.08" y="337" width="44.49" height="15.0" fill="#0060FF" rx="2" ry="2" onmouseover="s('make_names (8 samples, 3.77%)')" onmouseout="c()" />
<rect x="566.6" y="337" width="38.94" height="15.0" fill="#00AFFF" rx="2" ry="2" onmouseover="s('stopifnot (7 samples, 3.3%)')" onmouseout="c()" />
<rect x="605.57" y="337" width="5.55" height="15.0" fill="#0050FF" rx="2" ry="2" onmouseover="s('c (1 samples, 0.47%)')" onmouseout="c()" />
<rect x="611.13" y="337" width="5.55" height="15.0" fill="#0040FF" rx="2" ry="2" onmouseover="s('attr&lt;- (1 samples, 0.47%)')" onmouseout="c()" />
<rect x="700.19" y="337" width="27.85" height="15.0" fill="#0030FF" rx="2" ry="2" onmouseover="s('match.call (5 samples, 2.36%)')" onmouseout="c()" />
<rect x="728.02" y="337" width="5.55" height="15.0" fill="#0020FF" rx="2" ry="2" onmouseover="s('is.data.frame (1 samples, 0.47%)')" onmouseout="c()" />
<rect x="744.72" y="337" width="5.55" height="15.0" fill="#40FF00" rx="2" ry="2" onmouseover="s('tryCatch (1 samples, 0.47%)')" onmouseout="c()" />
<rect x="933.96" y="337" width="22.3" height="15.0" fill="#0010FF" rx="2" ry="2" onmouseover="s('[[.data.frame (4 samples, 1.89%)')" onmouseout="c()" />
<rect x="1011.89" y="337" width="5.55" height="15.0" fill="#30FF00" rx="2" ry="2" onmouseover="s('FUN (1 samples, 0.47%)')" onmouseout="c()" />
<rect x="1050.85" y="337" width="16.76" height="15.0" fill="#0000FF" rx="2" ry="2" onmouseover="s('dim.data.frame (3 samples, 1.42%)')" onmouseout="c()" />
<rect x="1123.21" y="337" width="5.55" height="15.0" fill="#1000FF" rx="2" ry="2" onmouseover="s('unique.default (1 samples, 0.47%)')" onmouseout="c()" />
<rect x="1128.77" y="337" width="5.55" height="15.0" fill="#00FF9F" rx="2" ry="2" onmouseover="s('tryCatchOne (1 samples, 0.47%)')" onmouseout="c()" />
<rect x="1134.34" y="337" width="5.55" height="15.0" fill="#2000FF" rx="2" ry="2" onmouseover="s('format.default (1 samples, 0.47%)')" onmouseout="c()" />
<rect x="1139.91" y="337" width="5.55" height="15.0" fill="#008FFF" rx="2" ry="2" onmouseover="s('cmpfun (1 samples, 0.47%)')" onmouseout="c()" />
<rect x="1162.17" y="337" width="5.55" height="15.0" fill="#3000FF" rx="2" ry="2" onmouseover="s('genCode (1 samples, 0.47%)')" onmouseout="c()" />
<rect x="10" y="321" width="166.97" height="15.0" fill="#BFFF00" rx="2" ry="2" onmouseover="s('lapply (30 samples, 14.15%)')" onmouseout="c()" />
<rect x="176.98" y="321" width="61.24" height="15.0" fill="#00FFAF" rx="2" ry="2" onmouseover="s('[[ (11 samples, 5.19%)')" onmouseout="c()" />
<rect x="238.21" y="321" width="33.39" height="15.0" fill="#4000FF" rx="2" ry="2" onmouseover="s('ncol (6 samples, 2.83%)')" onmouseout="c()" />
<rect x="271.6" y="321" width="27.85" height="15.0" fill="#9FFF00" rx="2" ry="2" onmouseover="s('names (5 samples, 2.36%)')" onmouseout="c()" />
<rect x="299.43" y="321" width="11.09" height="15.0" fill="#0020FF" rx="2" ry="2" onmouseover="s('is.data.frame (2 samples, 0.94%)')" onmouseout="c()" />
<rect x="310.57" y="321" width="5.55" height="15.0" fill="#0040FF" rx="2" ry="2" onmouseover="s('attr&lt;- (1 samples, 0.47%)')" onmouseout="c()" />
<rect x="405.19" y="321" width="50.15" height="15.0" fill="#80FF00" rx="2" ry="2" onmouseover="s('unlist (9 samples, 4.25%)')" onmouseout="c()" />
<rect x="455.28" y="321" width="22.3" height="15.0" fill="#1000FF" rx="2" ry="2" onmouseover="s('unique.default (4 samples, 1.89%)')" onmouseout="c()" />
<rect x="522.08" y="321" width="22.3" height="15.0" fill="#5000FF" rx="2" ry="2" onmouseover="s('paste (4 samples, 1.89%)')" onmouseout="c()" />
<rect x="566.6" y="321" width="22.3" height="15.0" fill="#0030FF" rx="2" ry="2" onmouseover="s('match.call (4 samples, 1.89%)')" onmouseout="c()" />
<rect x="700.19" y="321" width="5.55" height="15.0" fill="#6000FF" rx="2" ry="2" onmouseover="s('sys.function (1 samples, 0.47%)')" onmouseout="c()" />
<rect x="705.75" y="321" width="5.55" height="15.0" fill="#7000FF" rx="2" ry="2" onmouseover="s('sys.call (1 samples, 0.47%)')" onmouseout="c()" />
<rect x="744.72" y="321" width="5.55" height="15.0" fill="#00FF30" rx="2" ry="2" onmouseover="s('tryCatchList (1 samples, 0.47%)')" onmouseout="c()" />
<rect x="933.96" y="321" width="16.76" height="15.0" fill="#8000FF" rx="2" ry="2" onmouseover="s('%in% (3 samples, 1.42%)')" onmouseout="c()" />
<rect x="1011.89" y="321" width="5.55" height="15.0" fill="#30FF00" rx="2" ry="2" onmouseover="s('FUN (1 samples, 0.47%)')" onmouseout="c()" />
<rect x="1050.85" y="321" width="11.09" height="15.0" fill="#8F00FF" rx="2" ry="2" onmouseover="s('length (2 samples, 0.94%)')" onmouseout="c()" />
<rect x="1061.98" y="321" width="5.55" height="15.0" fill="#9F00FF" rx="2" ry="2" onmouseover="s('.row_names_info (1 samples, 0.47%)')" onmouseout="c()" />
<rect x="1128.77" y="321" width="5.55" height="15.0" fill="#00EFFF" rx="2" ry="2" onmouseover="s('doTryCatch (1 samples, 0.47%)')" onmouseout="c()" />
<rect x="1134.34" y="321" width="5.55" height="15.0" fill="#AF00FF" rx="2" ry="2" onmouseover="s('prettyNum (1 samples, 0.47%)')" onmouseout="c()" />
<rect x="1139.91" y="321" width="5.55" height="15.0" fill="#3000FF" rx="2" ry="2" onmouseover="s('genCode (1 samples, 0.47%)')" onmouseout="c()" />
<rect x="1162.17" y="321" width="5.55" height="15.0" fill="#BF00FF" rx="2" ry="2" onmouseover="s('cmp (1 samples, 0.47%)')" onmouseout="c()" />
<rect x="10" y="305" width="105.73" height="15.0" fill="#30FF00" rx="2" ry="2" onmouseover="s('FUN (19 samples, 8.96%)')" onmouseout="c()" />
<rect x="115.75" y="305" width="5.55" height="15.0" fill="#CF00FF" rx="2" ry="2" onmouseover="s('match.fun (1 samples, 0.47%)')" onmouseout="c()" />
<rect x="176.98" y="305" width="50.15" height="15.0" fill="#0010FF" rx="2" ry="2" onmouseover="s('[[.data.frame (9 samples, 4.25%)')" onmouseout="c()" />
<rect x="238.21" y="305" width="33.39" height="15.0" fill="#00FFDF" rx="2" ry="2" onmouseover="s('dim (6 samples, 2.83%)')" onmouseout="c()" />
<rect x="271.6" y="305" width="27.85" height="15.0" fill="#9FFF00" rx="2" ry="2" onmouseover="s('names (5 samples, 2.36%)')" onmouseout="c()" />
<rect x="405.19" y="305" width="38.94" height="15.0" fill="#BFFF00" rx="2" ry="2" onmouseover="s('lapply (7 samples, 3.3%)')" onmouseout="c()" />
<rect x="566.6" y="305" width="11.09" height="15.0" fill="#DF00FF" rx="2" ry="2" onmouseover="s('parent.frame (2 samples, 0.94%)')" onmouseout="c()" />
<rect x="577.74" y="305" width="5.55" height="15.0" fill="#7000FF" rx="2" ry="2" onmouseover="s('sys.call (1 samples, 0.47%)')" onmouseout="c()" />
<rect x="744.72" y="305" width="5.55" height="15.0" fill="#00FF9F" rx="2" ry="2" onmouseover="s('tryCatchOne (1 samples, 0.47%)')" onmouseout="c()" />
<rect x="933.96" y="305" width="5.55" height="15.0" fill="#9FFF00" rx="2" ry="2" onmouseover="s('names (1 samples, 0.47%)')" onmouseout="c()" />
<rect x="1050.85" y="305" width="11.09" height="15.0" fill="#8F00FF" rx="2" ry="2" onmouseover="s('length (2 samples, 0.94%)')" onmouseout="c()" />
<rect x="1128.77" y="305" width="5.55" height="15.0" fill="#008FFF" rx="2" ry="2" onmouseover="s('cmpfun (1 samples, 0.47%)')" onmouseout="c()" />
<rect x="1139.91" y="305" width="5.55" height="15.0" fill="#BF00FF" rx="2" ry="2" onmouseover="s('cmp (1 samples, 0.47%)')" onmouseout="c()" />
<rect x="1162.17" y="305" width="5.55" height="15.0" fill="#EF00FF" rx="2" ry="2" onmouseover="s('cmpCall (1 samples, 0.47%)')" onmouseout="c()" />
<rect x="10" y="289" width="11.09" height="15.0" fill="#FF00FF" rx="2" ry="2" onmouseover="s('.subset (2 samples, 0.94%)')" onmouseout="c()" />
<rect x="21.13" y="289" width="11.09" height="15.0" fill="#FF00EF" rx="2" ry="2" onmouseover="s('isS4 (2 samples, 0.94%)')" onmouseout="c()" />
<rect x="32.26" y="289" width="5.55" height="15.0" fill="#FF00DF" rx="2" ry="2" onmouseover="s('.subset2 (1 samples, 0.47%)')" onmouseout="c()" />
<rect x="37.83" y="289" width="5.55" height="15.0" fill="#FF00CF" rx="2" ry="2" onmouseover="s('attr (1 samples, 0.47%)')" onmouseout="c()" />
<rect x="176.98" y="289" width="27.85" height="15.0" fill="#8000FF" rx="2" ry="2" onmouseover="s('%in% (5 samples, 2.36%)')" onmouseout="c()" />
<rect x="204.81" y="289" width="16.76" height="15.0" fill="#50FF00" rx="2" ry="2" onmouseover="s('&lt;Anonymous&gt; (3 samples, 1.42%)')" onmouseout="c()" />
<rect x="238.21" y="289" width="33.39" height="15.0" fill="#00FFDF" rx="2" ry="2" onmouseover="s('dim (6 samples, 2.83%)')" onmouseout="c()" />
<rect x="405.19" y="289" width="11.09" height="15.0" fill="#30FF00" rx="2" ry="2" onmouseover="s('FUN (2 samples, 0.94%)')" onmouseout="c()" />
<rect x="744.72" y="289" width="5.55" height="15.0" fill="#00EFFF" rx="2" ry="2" onmouseover="s('doTryCatch (1 samples, 0.47%)')" onmouseout="c()" />
<rect x="1128.77" y="289" width="5.55" height="15.0" fill="#FF00BF" rx="2" ry="2" onmouseover="s('mayCallBrowser (1 samples, 0.47%)')" onmouseout="c()" />
<rect x="1139.91" y="289" width="5.55" height="15.0" fill="#EF00FF" rx="2" ry="2" onmouseover="s('cmpCall (1 samples, 0.47%)')" onmouseout="c()" />
<rect x="1162.17" y="289" width="5.55" height="15.0" fill="#FF00AF" rx="2" ry="2" onmouseover="s('tryInline (1 samples, 0.47%)')" onmouseout="c()" />
<rect x="176.98" y="273" width="5.55" height="15.0" fill="#7000FF" rx="2" ry="2" onmouseover="s('sys.call (1 samples, 0.47%)')" onmouseout="c()" />
<rect x="238.21" y="273" width="16.76" height="15.0" fill="#0000FF" rx="2" ry="2" onmouseover="s('dim.data.frame (3 samples, 1.42%)')" onmouseout="c()" />
<rect x="744.72" y="273" width="5.55" height="15.0" fill="#008FFF" rx="2" ry="2" onmouseover="s('cmpfun (1 samples, 0.47%)')" onmouseout="c()" />
<rect x="1128.77" y="273" width="5.55" height="15.0" fill="#FF009F" rx="2" ry="2" onmouseover="s('mayCallBrowserList (1 samples, 0.47%)')" onmouseout="c()" />
<rect x="1139.91" y="273" width="5.55" height="15.0" fill="#FF00AF" rx="2" ry="2" onmouseover="s('tryInline (1 samples, 0.47%)')" onmouseout="c()" />
<rect x="1162.17" y="273" width="5.55" height="15.0" fill="#FF008F" rx="2" ry="2" onmouseover="s('h (1 samples, 0.47%)')" onmouseout="c()" />
<rect x="238.21" y="257" width="11.09" height="15.0" fill="#8F00FF" rx="2" ry="2" onmouseover="s('length (2 samples, 0.94%)')" onmouseout="c()" />
<rect x="744.72" y="257" width="5.55" height="15.0" fill="#3000FF" rx="2" ry="2" onmouseover="s('genCode (1 samples, 0.47%)')" onmouseout="c()" />
<rect x="1128.77" y="257" width="5.55" height="15.0" fill="#FF00BF" rx="2" ry="2" onmouseover="s('mayCallBrowser (1 samples, 0.47%)')" onmouseout="c()" />
<rect x="1139.91" y="257" width="5.55" height="15.0" fill="#FF008F" rx="2" ry="2" onmouseover="s('h (1 samples, 0.47%)')" onmouseout="c()" />
<rect x="1162.17" y="257" width="5.55" height="15.0" fill="#BF00FF" rx="2" ry="2" onmouseover="s('cmp (1 samples, 0.47%)')" onmouseout="c()" />
<rect x="238.21" y="241" width="11.09" height="15.0" fill="#8F00FF" rx="2" ry="2" onmouseover="s('length (2 samples, 0.94%)')" onmouseout="c()" />
<rect x="744.72" y="241" width="5.55" height="15.0" fill="#BF00FF" rx="2" ry="2" onmouseover="s('cmp (1 samples, 0.47%)')" onmouseout="c()" />
<rect x="1128.77" y="241" width="5.55" height="15.0" fill="#FF009F" rx="2" ry="2" onmouseover="s('mayCallBrowserList (1 samples, 0.47%)')" onmouseout="c()" />
<rect x="1139.91" y="241" width="5.55" height="15.0" fill="#BF00FF" rx="2" ry="2" onmouseover="s('cmp (1 samples, 0.47%)')" onmouseout="c()" />
<rect x="1162.17" y="241" width="5.55" height="15.0" fill="#EF00FF" rx="2" ry="2" onmouseover="s('cmpCall (1 samples, 0.47%)')" onmouseout="c()" />
<rect x="744.72" y="225" width="5.55" height="15.0" fill="#EF00FF" rx="2" ry="2" onmouseover="s('cmpCall (1 samples, 0.47%)')" onmouseout="c()" />
<rect x="1128.77" y="225" width="5.55" height="15.0" fill="#00BFFF" rx="2" ry="2" onmouseover="s('as.list (1 samples, 0.47%)')" onmouseout="c()" />
<rect x="1139.91" y="225" width="5.55" height="15.0" fill="#EF00FF" rx="2" ry="2" onmouseover="s('cmpCall (1 samples, 0.47%)')" onmouseout="c()" />
<rect x="1162.17" y="225" width="5.55" height="15.0" fill="#FF00AF" rx="2" ry="2" onmouseover="s('tryInline (1 samples, 0.47%)')" onmouseout="c()" />
<rect x="744.72" y="209" width="5.55" height="15.0" fill="#FF00AF" rx="2" ry="2" onmouseover="s('tryInline (1 samples, 0.47%)')" onmouseout="c()" />
<rect x="1139.91" y="209" width="5.55" height="15.0" fill="#FF00AF" rx="2" ry="2" onmouseover="s('tryInline (1 samples, 0.47%)')" onmouseout="c()" />
<rect x="1162.17" y="209" width="5.55" height="15.0" fill="#FF008F" rx="2" ry="2" onmouseover="s('h (1 samples, 0.47%)')" onmouseout="c()" />
<rect x="744.72" y="193" width="5.55" height="15.0" fill="#FF008F" rx="2" ry="2" onmouseover="s('h (1 samples, 0.47%)')" onmouseout="c()" />
<rect x="1139.91" y="193" width="5.55" height="15.0" fill="#FF008F" rx="2" ry="2" onmouseover="s('h (1 samples, 0.47%)')" onmouseout="c()" />
<rect x="1162.17" y="193" width="5.55" height="15.0" fill="#BF00FF" rx="2" ry="2" onmouseover="s('cmp (1 samples, 0.47%)')" onmouseout="c()" />
<rect x="744.72" y="177" width="5.55" height="15.0" fill="#BF00FF" rx="2" ry="2" onmouseover="s('cmp (1 samples, 0.47%)')" onmouseout="c()" />
<rect x="1139.91" y="177" width="5.55" height="15.0" fill="#BF00FF" rx="2" ry="2" onmouseover="s('cmp (1 samples, 0.47%)')" onmouseout="c()" />
<rect x="1162.17" y="177" width="5.55" height="15.0" fill="#FF0080" rx="2" ry="2" onmouseover="s('constantFold (1 samples, 0.47%)')" onmouseout="c()" />
<rect x="744.72" y="161" width="5.55" height="15.0" fill="#EF00FF" rx="2" ry="2" onmouseover="s('cmpCall (1 samples, 0.47%)')" onmouseout="c()" />
<rect x="1139.91" y="161" width="5.55" height="15.0" fill="#EF00FF" rx="2" ry="2" onmouseover="s('cmpCall (1 samples, 0.47%)')" onmouseout="c()" />
<rect x="1162.17" y="161" width="5.55" height="15.0" fill="#FF0070" rx="2" ry="2" onmouseover="s('constantFoldCall (1 samples, 0.47%)')" onmouseout="c()" />
<rect x="744.72" y="145" width="5.55" height="15.0" fill="#FF00AF" rx="2" ry="2" onmouseover="s('tryInline (1 samples, 0.47%)')" onmouseout="c()" />
<rect x="1139.91" y="145" width="5.55" height="15.0" fill="#FF00AF" rx="2" ry="2" onmouseover="s('tryInline (1 samples, 0.47%)')" onmouseout="c()" />
<rect x="1162.17" y="145" width="5.55" height="15.0" fill="#00BFFF" rx="2" ry="2" onmouseover="s('as.list (1 samples, 0.47%)')" onmouseout="c()" />
<rect x="744.72" y="129" width="5.55" height="15.0" fill="#FF008F" rx="2" ry="2" onmouseover="s('h (1 samples, 0.47%)')" onmouseout="c()" />
<rect x="1139.91" y="129" width="5.55" height="15.0" fill="#FF008F" rx="2" ry="2" onmouseover="s('h (1 samples, 0.47%)')" onmouseout="c()" />
<rect x="744.72" y="113" width="5.55" height="15.0" fill="#FF0060" rx="2" ry="2" onmouseover="s('cmpSymbolAssign (1 samples, 0.47%)')" onmouseout="c()" />
<rect x="1139.91" y="113" width="5.55" height="15.0" fill="#BF00FF" rx="2" ry="2" onmouseover="s('cmp (1 samples, 0.47%)')" onmouseout="c()" />
<rect x="744.72" y="97" width="5.55" height="15.0" fill="#BF00FF" rx="2" ry="2" onmouseover="s('cmp (1 samples, 0.47%)')" onmouseout="c()" />
<rect x="1139.91" y="97" width="5.55" height="15.0" fill="#EF00FF" rx="2" ry="2" onmouseover="s('cmpCall (1 samples, 0.47%)')" onmouseout="c()" />
<rect x="744.72" y="81" width="5.55" height="15.0" fill="#EF00FF" rx="2" ry="2" onmouseover="s('cmpCall (1 samples, 0.47%)')" onmouseout="c()" />
<rect x="1139.91" y="81" width="5.55" height="15.0" fill="#FF0050" rx="2" ry="2" onmouseover="s('cmpCallSymFun (1 samples, 0.47%)')" onmouseout="c()" />
<rect x="744.72" y="65" width="5.55" height="15.0" fill="#FF00AF" rx="2" ry="2" onmouseover="s('tryInline (1 samples, 0.47%)')" onmouseout="c()" />
<rect x="1139.91" y="65" width="5.55" height="15.0" fill="#FF0040" rx="2" ry="2" onmouseover="s('cmpCallArgs (1 samples, 0.47%)')" onmouseout="c()" />
<rect x="744.72" y="49" width="5.55" height="15.0" fill="#FF0030" rx="2" ry="2" onmouseover="s('getInlineHandler (1 samples, 0.47%)')" onmouseout="c()" />
<rect x="1139.91" y="49" width="5.55" height="15.0" fill="#FF0020" rx="2" ry="2" onmouseover="s('cmpConstArg (1 samples, 0.47%)')" onmouseout="c()" />
<rect x="744.72" y="33" width="5.55" height="15.0" fill="#FF0010" rx="2" ry="2" onmouseover="s('exists (1 samples, 0.47%)')" onmouseout="c()" />
<text text-anchor="" x="13" y="491.5" font-size="12" font-family="Verdana" fill="rgb(0,0,0)" onmouseover="s('simplifyFragmentData (212 samples, 100%)')" onmouseout="c()" >simplifyFragmentData</text>
<text text-anchor="" x="13" y="475.5" font-size="12" font-family="Verdana" fill="rgb(0,0,0)" onmouseover="s('ddply (201 samples, 94.81%)')" onmouseout="c()" >ddply</text>
<text text-anchor="" x="13" y="459.5" font-size="12" font-family="Verdana" fill="rgb(0,0,0)" onmouseover="s('ldply (200 samples, 94.34%)')" onmouseout="c()" >ldply</text>
<text text-anchor="" x="13" y="443.5" font-size="12" font-family="Verdana" fill="rgb(0,0,0)" onmouseover="s('llply (145 samples, 68.4%)')" onmouseout="c()" >llply</text>
<text text-anchor="" x="820.08" y="443.5" font-size="12" font-family="Verdana" fill="rgb(0,0,0)" onmouseover="s('list_to_dataframe (55 samples, 25.94%)')" onmouseout="c()" >list_to_dataframe</text>
<text text-anchor="" x="13" y="427.5" font-size="12" font-family="Verdana" fill="rgb(0,0,0)" onmouseover="s('loop_apply (144 samples, 67.92%)')" onmouseout="c()" >loop_apply</text>
<text text-anchor="" x="820.08" y="427.5" font-size="12" font-family="Verdana" fill="rgb(0,0,0)" onmouseover="s('rbind.fill (42 samples, 19.81%)')" onmouseout="c()" >rbind.fill</text>
<text text-anchor="" x="1053.85" y="427.5" font-size="12" font-family="Verdana" fill="rgb(0,0,0)" onmouseover="s('unlist (12 samples, 5.66%)')" onmouseout="c()" >unlist</text>
<text text-anchor="" x="13" y="411.5" font-size="12" font-family="Verdana" fill="rgb(0,0,0)" onmouseover="s('.Call (144 samples, 67.92%)')" onmouseout="c()" >.Call</text>
<text text-anchor="" x="820.08" y="411.5" font-size="12" font-family="Verdana" fill="rgb(0,0,0)" onmouseover="s('seq (21 samples, 9.91%)')" onmouseout="c()" >seq</text>
<text text-anchor="" x="13" y="395.5" font-size="12" font-family="Verdana" fill="rgb(0,0,0)" onmouseover="s('&lt;Anonymous&gt; (144 samples, 67.92%)')" onmouseout="c()" >&lt;Anonymous&gt;</text>
<text text-anchor="" x="936.96" y="395.5" font-size="12" font-family="Verdana" fill="rgb(0,0,0)" onmouseover="s('eval (11 samples, 5.19%)')" onmouseout="c()" >eval</text>
<text text-anchor="" x="1053.85" y="395.5" font-size="12" font-family="Verdana" fill="rgb(0,0,0)" onmouseover="s('FUN (6 samples, 2.83%)')" onmouseout="c()" >FUN</text>
<text text-anchor="" x="13" y="379.5" font-size="12" font-family="Verdana" fill="rgb(0,0,0)" onmouseover="s('[[ (71 samples, 33.49%)')" onmouseout="c()" >[[</text>
<text text-anchor="" x="408.19" y="379.5" font-size="12" font-family="Verdana" fill="rgb(0,0,0)" onmouseover="s('.fun (67 samples, 31.6%)')" onmouseout="c()" >.fun</text>
<text text-anchor="" x="936.96" y="379.5" font-size="12" font-family="Verdana" fill="rgb(0,0,0)" onmouseover="s('eval (9 samples, 4.25%)')" onmouseout="c()" >eval</text>
<text text-anchor="" x="13" y="363.5" font-size="12" font-family="Verdana" fill="rgb(0,0,0)" onmouseover="s('[[.indexed_df (71 samples, 33.49%)')" onmouseout="c()" >[[.indexed_df</text>
<text text-anchor="" x="408.19" y="363.5" font-size="12" font-family="Verdana" fill="rgb(0,0,0)" onmouseover="s('quickdf (44 samples, 20.75%)')" onmouseout="c()" >quickdf</text>
<text text-anchor="" x="936.96" y="363.5" font-size="12" font-family="Verdana" fill="rgb(0,0,0)" onmouseover="s('[[ (6 samples, 2.83%)')" onmouseout="c()" >[[</text>
<text text-anchor="" x="13" y="347.5" font-size="12" font-family="Verdana" fill="rgb(0,0,0)" onmouseover="s('extract_rows (64 samples, 30.19%)')" onmouseout="c()" >extract_rows</text>
<text text-anchor="" x="369.23" y="347.5" font-size="12" font-family="Verdana" fill="rgb(0,0,0)" onmouseover="s('$ (3 samples, 1.42%)')" onmouseout="c()" >$</text>
<text text-anchor="" x="408.19" y="347.5" font-size="12" font-family="Verdana" fill="rgb(0,0,0)" onmouseover="s('unique (21 samples, 9.91%)')" onmouseout="c()" >unique</text>
<text text-anchor="" x="13" y="331.5" font-size="12" font-family="Verdana" fill="rgb(0,0,0)" onmouseover="s('lapply (30 samples, 14.15%)')" onmouseout="c()" >lapply</text>
<text text-anchor="" x="179.98" y="331.5" font-size="12" font-family="Verdana" fill="rgb(0,0,0)" onmouseover="s('[[ (11 samples, 5.19%)')" onmouseout="c()" >[[</text>
<text text-anchor="" x="13" y="315.5" font-size="12" font-family="Verdana" fill="rgb(0,0,0)" onmouseover="s('FUN (19 samples, 8.96%)')" onmouseout="c()" >FUN</text>
<text text-anchor="" x="241.21" y="315.5" font-size="12" font-family="Verdana" fill="rgb(0,0,0)" onmouseover="s('dim (6 samples, 2.83%)')" onmouseout="c()" >dim</text>
<text text-anchor="" x="241.21" y="299.5" font-size="12" font-family="Verdana" fill="rgb(0,0,0)" onmouseover="s('dim (6 samples, 2.83%)')" onmouseout="c()" >dim</text>


    </svg>
